<?xml version="1.0" encoding="UTF-8"?> <svg xmlns="http://www.w3.org/2000/svg" width="60" height="60" viewBox="0 0 60 60" fill="none"> <circle cx="30" cy="30" r="29.5" fill="white" stroke="#42AAA8"></circle> <g clip-path="url(#clip0_106_7)"> <path d="M30 31.8977C20.9861 31.8977 16.0219 36.1619 16.0219 43.905C16.0219 44.5098 16.512 44.9999 17.1168 44.9999H42.8832C43.4879 44.9999 43.9781 44.5098 43.9781 43.905C43.9781 36.1623 39.0139 31.8977 30 31.8977ZM18.2515 42.8101C18.6821 37.0207 22.6292 34.0875 30 34.0875C37.3708 34.0875 41.3179 37.0207 41.7489 42.8101H18.2515V42.8101Z" fill="#42AAA8" stroke="white" stroke-width="0.2"></path> <path d="M30 15C25.8595 15 22.7372 18.185 22.7372 22.4084C22.7372 26.7555 25.9953 30.2916 30 30.2916C34.0047 30.2916 37.2628 26.7555 37.2628 22.4088C37.2628 18.185 34.1405 15 30 15ZM30 28.1022C27.2026 28.1022 24.927 25.5482 24.927 22.4088C24.927 19.3847 27.0606 17.1898 30 17.1898C32.8924 17.1898 35.073 19.4332 35.073 22.4088C35.073 25.5482 32.7974 28.1022 30 28.1022Z" fill="#42AAA8" stroke="white" stroke-width="0.2"></path> </g> <defs> <clipPath id="clip0_106_7"> <rect width="30" height="30" fill="white" transform="translate(15 15)"></rect> </clipPath> </defs> </svg> 