<?xml version="1.0" encoding="UTF-8"?> <svg xmlns="http://www.w3.org/2000/svg" width="60" height="60" viewBox="0 0 60 60" fill="none"> <circle cx="30" cy="30" r="29.5" fill="white" stroke="#42AAA8"></circle> <path d="M34.9445 31.1333C33.1429 31.1333 31.6778 32.5984 31.6778 34.4C31.6778 36.2015 33.1429 37.6666 34.9445 37.6666C36.7461 37.6666 38.2111 36.2015 38.2111 34.4C38.2111 32.5984 36.7461 31.1333 34.9445 31.1333ZM34.9445 36.5777C33.7434 36.5777 32.7667 35.601 32.7667 34.4C32.7667 33.1989 33.7435 32.2222 34.9445 32.2222C36.1456 32.2222 37.1222 33.199 37.1222 34.4C37.1223 35.601 36.1456 36.5777 34.9445 36.5777Z" fill="#42AAA8" stroke="#42AAA8" stroke-width="0.5"></path> <path d="M36.0334 36.5774V38.8271L35.2461 38.3022C35.0632 38.1797 34.8253 38.1797 34.6423 38.3022L33.8556 38.8271V36.5774H32.7667V39.8441C32.7667 40.045 32.8772 40.2296 33.0547 40.3242C33.2311 40.419 33.4467 40.4081 33.6133 40.297L34.9445 39.4096L36.2756 40.297C36.3666 40.3574 36.4722 40.3885 36.5778 40.3885C36.666 40.3885 36.7542 40.3672 36.8348 40.3242C37.0117 40.2295 37.1223 40.0449 37.1223 39.8441V36.5774H36.0334Z" fill="#42AAA8" stroke="#42AAA8" stroke-width="0.5"></path> <path d="M38.2113 21.8779H20.789V22.9668H38.2113V21.8779Z" fill="#42AAA8" stroke="#42AAA8" stroke-width="0.5"></path> <path d="M32.7668 25.1443H20.789V26.2332H32.7668V25.1443Z" fill="#42AAA8" stroke="#42AAA8" stroke-width="0.5"></path> <path d="M38.211 28.4109H20.7887V29.4998H38.211V28.4109Z" fill="#42AAA8" stroke="#42AAA8" stroke-width="0.5"></path> <path d="M27.3224 31.6777H20.789V32.7666H27.3224V31.6777Z" fill="#42AAA8" stroke="#42AAA8" stroke-width="0.5"></path> <path d="M43.111 13.1667C41.61 13.1667 40.3888 14.3879 40.3888 15.889V16.9779C40.3888 17.2784 40.6321 17.5223 40.9332 17.5223H45.2888C45.5899 17.5223 45.8332 17.2784 45.8332 16.9779V15.889C45.8333 14.3879 44.6121 13.1667 43.111 13.1667ZM44.7444 16.4334H41.4777V15.889C41.4777 14.9885 42.2105 14.2557 43.111 14.2557C44.0115 14.2557 44.7444 14.9885 44.7444 15.889V16.4334V16.4334Z" fill="#42AAA8" stroke="#42AAA8" stroke-width="0.5"></path> <path d="M43.1111 13.1667H20.2445C18.7435 13.1667 17.5223 14.3879 17.5223 15.889V42.0223H18.6112V15.889C18.6112 14.9885 19.344 14.2557 20.2445 14.2557H40.9345C40.5921 14.7108 40.389 15.2765 40.389 15.889V43.1112C40.389 44.0117 39.6562 44.7446 38.7557 44.7446H18.0667V45.8334H38.7556C40.2566 45.8334 41.4779 44.6122 41.4779 43.1112V15.889C41.4779 14.9885 42.2107 14.2557 43.1112 14.2557C43.4123 14.2557 43.6556 14.0117 43.6556 13.7112C43.6556 13.4107 43.4122 13.1667 43.1111 13.1667Z" fill="#42AAA8" stroke="#42AAA8" stroke-width="0.5"></path> <path d="M38.7556 44.7444C37.8551 44.7444 37.1222 44.0116 37.1222 43.1111V42.0222C37.1222 41.7211 36.8789 41.4778 36.5778 41.4778H13.7111C13.4106 41.4778 13.1667 41.7211 13.1667 42.0222V43.1111C13.1667 44.6122 14.3878 45.8334 15.8889 45.8334H38.7556C39.0567 45.8334 39.3 45.59 39.3 45.2889C39.3 44.9879 39.0567 44.7444 38.7556 44.7444ZM15.8889 44.7444C14.9884 44.7444 14.2556 44.0116 14.2556 43.1111V42.5667H36.0333V43.1111C36.0333 43.7236 36.2364 44.2893 36.5788 44.7444H15.8889V44.7444Z" fill="#42AAA8" stroke="#42AAA8" stroke-width="0.5"></path> </svg> 