<?xml version="1.0" encoding="UTF-8"?> <svg xmlns="http://www.w3.org/2000/svg" width="60" height="60" viewBox="0 0 60 60" fill="none"> <circle cx="30" cy="30" r="29.5" fill="white" stroke="#42AAA8"></circle> <g clip-path="url(#clip0_106_9)"> <path d="M46.7971 28.8819L43.823 24.8457L43.8572 19.8315C43.8605 19.3748 43.5655 18.9694 43.1301 18.8315L38.35 17.3177L35.4346 13.2377C35.1684 12.8648 34.6904 12.7111 34.2571 12.8552L29.5 14.4431L24.7429 12.8548C24.3091 12.7106 23.8312 12.8643 23.5653 13.2373L20.6503 17.3169L15.8699 18.8315C15.4345 18.969 15.1395 19.3748 15.1428 19.8311L15.177 24.8452L12.2028 28.8815C11.9324 29.249 11.9324 29.7503 12.2028 30.1178L15.1769 34.154L15.1427 39.1682C15.1394 39.6248 15.4344 40.0303 15.8699 40.1682L20.6499 41.682L23.5653 45.762C23.7648 46.0411 24.0832 46.1982 24.4128 46.1982C24.5232 46.1982 24.634 46.1807 24.7428 46.1445L29.4999 44.5566L34.257 46.1449C34.6903 46.2895 35.1686 46.1349 35.4345 45.7624L38.3495 41.6828L43.1301 40.1682C43.5655 40.0308 43.8605 39.6249 43.8572 39.1687L43.823 34.1541L46.7971 30.1178C47.0675 29.7507 47.0675 29.2491 46.7971 28.8819V28.8819ZM41.94 33.197C41.8067 33.3783 41.7355 33.5974 41.7371 33.822L41.7684 38.4142L37.3891 39.8012C37.1741 39.8691 36.9871 40.005 36.8562 40.1888L34.187 43.925L29.8299 42.4705C29.6158 42.3988 29.3841 42.3988 29.1699 42.4705L24.8128 43.925L22.1432 40.1883C22.0123 40.005 21.8249 39.8688 21.6102 39.8004L17.2314 38.4137L17.2627 33.8216C17.2643 33.597 17.1931 33.3779 17.0598 33.1966L14.3353 29.4998L17.0595 25.8028C17.1928 25.6215 17.2641 25.4023 17.2624 25.1777L17.2312 20.5856L21.6104 19.1985C21.8254 19.1306 22.0125 18.9948 22.1433 18.811L24.8125 15.0747L29.1696 16.5293C29.3837 16.601 29.6154 16.601 29.8296 16.5293L34.1867 15.0747L36.8563 18.8114C36.9872 18.9948 37.1747 19.131 37.3893 19.1993L41.7681 20.586L41.7368 25.1781C41.7352 25.4027 41.8064 25.6219 41.9398 25.8032L44.6648 29.4998L41.94 33.197Z" fill="#42AAA8"></path> <path d="M34.6229 24.8568L27.5471 31.9331L24.3775 28.7635C23.9704 28.3564 23.3112 28.3564 22.9045 28.7635C22.4978 29.1705 22.4974 29.8297 22.9045 30.2364L26.8108 34.1427C27.0141 34.3461 27.2808 34.4477 27.5475 34.4477C27.8142 34.4477 28.0804 34.3461 28.2842 34.1427L36.0967 26.3302C36.5038 25.9231 36.5038 25.264 36.0967 24.8572C35.6896 24.4505 35.0296 24.4502 34.6229 24.8568V24.8568Z" fill="#42AAA8"></path> </g> <defs> <clipPath id="clip0_106_9"> <rect width="35" height="35" fill="white" transform="translate(12 12)"></rect> </clipPath> </defs> </svg> 