<?xml version="1.0" encoding="UTF-8"?> <svg xmlns="http://www.w3.org/2000/svg" width="50" height="50" viewBox="0 0 50 50" fill="none"> <circle cx="25" cy="25" r="24.5" fill="white" stroke="#42AAA8"></circle> <path d="M39.6887 17.2156C39.4955 17.1011 39.2567 17.0967 39.0595 17.2042L32.1762 20.9626V18.7075C32.1743 16.9532 30.7526 15.5315 28.9983 15.5295H13.178C11.4236 15.5315 10.002 16.9532 10 18.7075V31.2555C10.002 33.0098 11.4236 34.4315 13.178 34.4335H28.9983C30.7526 34.4315 32.1743 33.0098 32.1762 31.2555V29.0414L39.0598 32.7998C39.2567 32.9073 39.4957 32.9031 39.6887 32.7886C39.8818 32.6739 40 32.4661 40 32.2419V17.7621C40 17.5376 39.8816 17.3301 39.6887 17.2156ZM30.9046 31.2558C30.9036 32.3085 30.0505 33.1613 28.9978 33.1625H13.178C12.1253 33.1613 11.2724 32.3085 11.2712 31.2558V18.7075C11.2724 17.6551 12.1253 16.802 13.178 16.8007H28.9983C30.0507 16.802 30.9038 17.6551 30.9051 18.7075L30.9046 31.2558ZM38.7288 31.1708L32.1762 27.5932V22.4108L38.7288 18.8334V31.1708Z" fill="#42AAA8"></path> </svg> 