<?xml version="1.0" encoding="UTF-8"?> <svg xmlns="http://www.w3.org/2000/svg" width="50" height="50" viewBox="0 0 50 50" fill="none"> <circle cx="25" cy="25" r="24.5" fill="white" stroke="#42AAA8"></circle> <g clip-path="url(#clip0_109_13)"> <path d="M27.2459 10.1889L16.2424 18.4382H11.432C10.6558 18.4382 10 19.0948 10 19.8699V30.1312C10 30.9062 10.6338 31.5628 11.432 31.5628H16.2424L27.2459 39.8103C27.8667 40.2756 28.7537 39.8316 28.7493 39.0561C28.7461 38.4955 28.7474 20.3092 28.7474 10.9358C28.7474 10.1989 27.8798 9.71365 27.2459 10.1889ZM26.8742 12.8105V37.185L17.495 30.1586V19.8406L26.8742 12.8105ZM32.5508 16.6496C31.4725 16.5207 31.1131 18.3365 32.3805 18.5206C35.6921 19.0016 38.1249 21.7432 38.1249 24.996C38.1249 28.2488 35.6939 31.0115 32.3805 31.4804C31.1472 31.6027 31.421 33.562 32.6442 33.335C36.8492 32.7399 40 29.1855 40 24.996C40 20.3062 36.2605 17.0683 32.5508 16.6496ZM11.8751 20.3111H15.6198L15.6234 29.6863H11.8751V20.3111ZM32.2084 22.8628C33.1499 23.1894 33.7576 24.0386 33.7576 24.996C33.7576 25.9536 33.143 26.8152 32.2011 27.1416C30.9872 27.5153 31.6702 29.3593 32.8237 28.9119C34.4983 28.3316 35.6327 26.7575 35.6327 24.996C35.6327 23.2091 34.483 21.6607 32.809 21.08C31.542 20.7406 31.0832 22.4214 32.2084 22.8628Z" fill="#42AAA8" stroke="white" stroke-width="0.4"></path> </g> <defs> <clipPath id="clip0_109_13"> <rect width="30" height="30" fill="white" transform="translate(10 10)"></rect> </clipPath> </defs> </svg> 