<?xml version="1.0" encoding="UTF-8"?> <svg xmlns="http://www.w3.org/2000/svg" width="50" height="50" viewBox="0 0 50 50" fill="none"> <circle cx="25" cy="25" r="24.5" fill="white" stroke="#42AAA8"></circle> <path d="M25 7.5C19.7917 7.5 15.625 11.6667 15.625 16.875V21.0417C13.8542 21.0417 12.5 22.3958 12.5 24.1667V37.7083C12.5 39.4792 13.8542 40.8333 15.625 40.8333H34.375C36.1458 40.8333 37.5 39.4792 37.5 37.7083V24.1667C37.5 22.3958 36.1458 21.0417 34.375 21.0417V16.875C34.375 11.6667 30.2083 7.5 25 7.5ZM35.4167 24.1667V37.7083C35.4167 38.3333 35 38.75 34.375 38.75H15.625C15 38.75 14.5833 38.3333 14.5833 37.7083V24.1667C14.5833 23.5417 15 23.125 15.625 23.125H16.6667H33.3333H34.375C35 23.125 35.4167 23.5417 35.4167 24.1667ZM17.7083 21.0417V16.875C17.7083 12.8125 20.9375 9.58333 25 9.58333C29.0625 9.58333 32.2917 12.8125 32.2917 16.875V21.0417H17.7083Z" fill="#42AAA8" stroke="white" stroke-width="0.7"></path> <path d="M25 26.25C23.2292 26.25 21.875 27.6042 21.875 29.375C21.875 30.7292 22.7083 31.875 23.9583 32.2917V34.5833C23.9583 35.2083 24.375 35.625 25 35.625C25.625 35.625 26.0417 35.2083 26.0417 34.5833V32.2917C27.2917 31.875 28.125 30.7292 28.125 29.375C28.125 27.6042 26.7708 26.25 25 26.25ZM25 30.4167C24.375 30.4167 23.9583 30 23.9583 29.375C23.9583 28.75 24.375 28.3333 25 28.3333C25.625 28.3333 26.0417 28.75 26.0417 29.375C26.0417 30 25.625 30.4167 25 30.4167Z" fill="#42AAA8" stroke="white" stroke-width="0.7"></path> </svg> 